<?xml version="1.0" ?><!DOCTYPE svg  PUBLIC '-//W3C//DTD SVG 1.1//EN'  'http://www.w3.org/Graphics/SVG/1.1/DTD/svg11.dtd'><svg enable-background="new 0 0 512 512" height="512px" id="Calque_2" version="1.1" viewBox="0 0 512 512" width="512px" xml:space="preserve" xmlns="http://www.w3.org/2000/svg" xmlns:xlink="http://www.w3.org/1999/xlink"><g><linearGradient gradientUnits="userSpaceOnUse" id="SVGID_1_" x1="109.1018" x2="109.1018" y1="238.6809" y2="309.3757"><stop offset="0" style="stop-color:#FF3C00"/><stop offset="1" style="stop-color:#FF9700"/></linearGradient><polygon fill="url(#SVGID_1_)" points="68.463,273.6 89.044,309.375 149.741,274.452 129.157,238.681  "/><linearGradient gradientUnits="userSpaceOnUse" id="SVGID_2_" x1="262.6707" x2="262.6707" y1="311.052" y2="324.386"><stop offset="0" style="stop-color:#FF3C00"/><stop offset="1" style="stop-color:#FF9700"/></linearGradient><polygon fill="url(#SVGID_2_)" points="262.67,311.052 246.526,311.052 242.666,324.386 262.669,324.386 282.675,324.386    278.816,311.052  "/><linearGradient gradientUnits="userSpaceOnUse" id="SVGID_3_" x1="242.009" x2="242.009" y1="116.7844" y2="278.3357"><stop offset="0" style="stop-color:#FF3C00"/><stop offset="1" style="stop-color:#FF9700"/></linearGradient><polygon fill="url(#SVGID_3_)" points="133.3,223.823 164.667,278.335 350.719,171.303 319.352,116.784  "/><linearGradient gradientUnits="userSpaceOnUse" id="SVGID_4_" x1="255.9993" x2="255.9993" y1="6.5002" y2="505.5007"><stop offset="0" style="stop-color:#FF3C00"/><stop offset="1" style="stop-color:#FF9700"/></linearGradient><path d="M438.5,6.5h-365c-35.841,0-65,29.159-65,65v369c0,35.841,29.159,65,65,65h365   c35.842,0,65-29.159,65-65v-369C503.5,35.659,474.342,6.5,438.5,6.5z M329.089,464.947c-0.51,0.149-1.023,0.218-1.53,0.218   c-2.386,0-4.583-1.564-5.28-3.972L285.86,335.386h-17.688V459.66c0,3.037-2.463,5.5-5.5,5.5c-3.035,0-5.5-2.463-5.5-5.5V335.385   h-17.688l-36.418,125.807c-0.697,2.409-2.896,3.972-5.281,3.972c-0.507,0.001-1.02-0.07-1.532-0.218   c-2.918-0.845-4.599-3.895-3.754-6.813l35.532-122.748h-7.268c-3.038,0-5.5-2.463-5.5-5.5s2.462-5.5,5.5-5.5h10.45l5.896-20.363   c0.68-2.352,2.834-3.971,5.283-3.971h14.775v-42.328l-12.343,7.353c-0.882,0.523-1.852,0.773-2.809,0.773   c-1.875,0-3.702-0.959-4.731-2.687c-1.554-2.61-0.698-5.986,1.912-7.54l38.738-23.068c2.61-1.554,5.983-0.698,7.54,1.912   c1.554,2.61,0.697,5.986-1.911,7.54l-15.657,9.324c0.169,0.528,0.262,1.091,0.262,1.676v47.046h14.778   c2.448,0,4.601,1.619,5.283,3.971l5.895,20.363h10.452c3.037,0,5.5,2.463,5.5,5.5s-2.463,5.5-5.5,5.5h-7.268l35.534,122.748   C333.689,461.052,332.007,464.102,329.089,464.947z M456.358,128.373c-0.378,1.406-1.302,2.606-2.565,3.336l-72.01,41.427   c-0.002,0.001-0.004,0.002-0.006,0.003l-17.771,10.226c-0.842,0.484-1.787,0.733-2.741,0.733c-0.481,0-0.96-0.061-1.433-0.188   c-1.409-0.379-2.607-1.303-3.337-2.566l-0.29-0.505L165.384,290.614c-0.862,0.497-1.806,0.733-2.735,0.733   c-1.903,0-3.753-0.989-4.772-2.758l-2.646-4.604l-65.466,37.667c-0.844,0.484-1.789,0.732-2.743,0.732   c-0.481,0-0.961-0.063-1.434-0.189c-1.406-0.379-2.606-1.302-3.336-2.566l-26.063-45.312c-1.517-2.633-0.609-5.994,2.023-7.51   l65.461-37.662l-2.648-4.604c-0.729-1.266-0.922-2.768-0.543-4.174c0.379-1.409,1.302-2.609,2.566-3.338l190.818-109.78   l-0.289-0.503c-1.515-2.635-0.609-5.995,2.023-7.512l17.774-10.232c0,0,0,0,0.001,0l72.006-41.435   c1.267-0.728,2.771-0.922,4.177-0.543c1.406,0.38,2.606,1.304,3.336,2.568l42.922,74.604   C456.544,125.463,456.737,126.964,456.358,128.373z" fill="url(#SVGID_4_)"/><linearGradient gradientUnits="userSpaceOnUse" id="SVGID_5_" x1="393.5828" x2="393.5828" y1="59.8469" y2="160.8577"><stop offset="0" style="stop-color:#FF3C00"/><stop offset="1" style="stop-color:#FF9700"/></linearGradient><polygon fill="url(#SVGID_5_)" points="343.628,95.794 381.064,160.858 443.538,124.918 406.101,59.847  "/><linearGradient gradientUnits="userSpaceOnUse" id="SVGID_6_" x1="348.6912" x2="348.6912" y1="101.2786" y2="171.0862"><stop offset="0" style="stop-color:#FF3C00"/><stop offset="1" style="stop-color:#FF9700"/></linearGradient><polygon fill="url(#SVGID_6_)" points="325.852,106.024 363.289,171.086 371.529,166.343 334.095,101.279  "/></g></svg>