<?xml version="1.0" encoding="utf-8"?>
<!-- Generator: Adobe Illustrator 21.0.0, SVG Export Plug-In . SVG Version: 6.00 Build 0)  -->
<svg version="1.1" id="Layer_1" xmlns="http://www.w3.org/2000/svg" xmlns:xlink="http://www.w3.org/1999/xlink" x="0px" y="0px"
	 viewBox="0 0 612 333" style="enable-background:new 0 0 612 333;" xml:space="preserve">
<style type="text/css">
	.st0{fill:#FFFFFF;}
</style>
<g>
	<path class="st0" d="M304.1,326c-92-4-159-76.3-154.1-167.9c4.5-84.4,77.6-153.2,168.4-147.2c82.2,5.5,150.2,75.3,146.4,164.2
		C461.2,260.9,390.6,327.1,304.1,326z M307.3,322.5c83.6,0,154-69.2,154.1-151.6c0.1-86.8-67.8-156.6-152.4-156.6
		c-86.6,0-155.6,67.9-155.9,153.7C152.9,252.7,222.4,322.5,307.3,322.5z"/>
	<path class="st0" d="M271,278c3-0.7,5.4-1.4,7.7-1.9c17.8-4.2,33.4-12.4,47-24.7c2.5-2.3,6.3-3.6,9.8-4.3c3.7-0.7,7.3-1,7.4-5.7
		c0.1-5-3.5-6.1-7.5-6.5c-2.3-0.2-4.6,0-7,0c-0.2-0.6-0.4-1.1-0.6-1.7c2.8-0.8,5.7-2.5,8.4-2.3c4.1,0.2,6.6-1,8.6-4.6
		c11.1-20.5,14-42.3,10.5-65.2c-0.9-5.7-4.1-3.8-7.3-2.2c-20.5,10-40.8,20.4-61.6,29.7c-24.9,11.2-50.2,21.7-77.1,27.2
		c-7.2,1.5-14.8,2.5-22.2,2c-11.8-0.8-14.1-6.9-7.2-16.5c1-1.4,2.1-2.6,3.3-4.1c0.4,0.7,0.7,1,0.7,1.3c-0.8,10.1,1.5,12.2,11.6,10.7
		c28.1-4.2,54.3-14.6,79.8-26.3c30.7-14,60.7-29.7,90.9-44.9c7.6-3.8,7.7-3.9,9.1,4.4c0.3,1.6,1.9,3,2.8,4.5c1.3-1.1,2.7-2,3.8-3.2
		c2.3-2.6,4.3-5.6,6.7-8.2c2.5-2.7,5.8-4.8,8-7.7c2.9-3.9,1.5-6.9-3.3-7.3c-3.1-0.2-6.3,0.2-9.3,1c-4.4,1.2-8.5,4.1-13.4,0.9
		c-0.9-0.6-3.4,1.4-7.3,3c2.7,1.6,4,2.1,5,3c2.6,2.6,2,4.4-1.5,5.4c-0.6,0.2-1.1,0.4-1.7,0.6c-15.5,5.3-15.3,5.2-23.8-8.6
		c-8.6-14-20.4-24.9-34.5-33.3c-3.5-2.1-6.4-2-9.6,0.8c-4.9,4.3-10.7,5.2-16.5,2.5c-2.7-1.3-4.6-4.3-5.8-7c4.2,1,8.4,3.1,12.5,2.9
		c5.7-0.3,8.6-4.3,7.6-8.4c-1-4-7.2-7.4-11.5-5.4c-6.1,2.8-12.1,2.4-18.4,1.8c-17.4-1.6-34.1,1.2-49.8,9c-1.5,0.7-3.1,1.2-5.3,2
		c17.4-31.5,82-64.6,145-33.8c59.9,29.3,84,102.8,53,163.1C382.9,269.2,310.7,300.1,271,278z"/>
	<path class="st0" d="M298.4,211.5c0.7-1.9,1.2-3.5,1.8-5.1c1.7,0,3.4,0,5.3,0c0.5,1.5,1.1,3.2,1.7,5.1c-1.4,1.1-3,2.4-4.4,3.5
		C301.3,213.7,299.9,212.6,298.4,211.5z"/>
	<path class="st0" d="M243.2,236.8c-1.7,1.3-3,2.3-4.4,3.3c-1.4-1-3.1-2.1-4.8-3.2c0.6-1.6,1.1-3.4,1.8-5.2c1.7-0.1,3.6-0.2,5.5-0.3
		C241.9,233.1,242.5,235,243.2,236.8z"/>
	<path class="st0" d="M227.7,118.6c-1.8-1.2-3.5-2.3-5-3.3c0.7-1.6,1.4-3.3,2.2-5.2c1.6,0,3.4,0,5.4,0c0.5,1.7,1.1,3.4,1.7,5.3
		C230.7,116.4,229.1,117.6,227.7,118.6z"/>
	<path class="st0" d="M283.4,132c-1.3,1.1-2.8,2.3-4.4,3.5c-1.4-1-3-2.2-4.6-3.3c0.6-1.6,1.2-3.4,1.8-5.2c1.6-0.1,3.5-0.2,5.3-0.2
		C282.1,128.4,282.8,130.2,283.4,132z"/>
	<path class="st0" d="M199.9,160c1.7,0,3.4,0,5.1,0c0.7,1.5,1.4,3.2,2.2,5c-1.5,1.1-3.1,2.3-4.8,3.5c-1.3-1-2.7-2.2-4.4-3.5
		C198.6,163.5,199.3,161.7,199.9,160z"/>
</g>
</svg>
